<svg xmlns="http://www.w3.org/2000/svg" viewBox="0 0 64 64" role="img" aria-label="Readrail">
  <defs>
    <linearGradient id="bg" x1="12" y1="8" x2="54" y2="58" gradientUnits="userSpaceOnUse">
      <stop offset="0" stop-color="#0f4f55"/>
      <stop offset="0.55" stop-color="#173f63"/>
      <stop offset="1" stop-color="#252b4d"/>
    </linearGradient>
    <linearGradient id="rail" x1="12" y1="36" x2="52" y2="28" gradientUnits="userSpaceOnUse">
      <stop offset="0" stop-color="#2dd4bf"/>
      <stop offset="1" stop-color="#f8b84e"/>
    </linearGradient>
  </defs>
  <rect width="64" height="64" rx="15" fill="url(#bg)"/>
  <path fill="#f8f1df" d="M13 18.5c0-2.1 1.7-3.6 3.8-3.3l11.5 1.7c1.7.3 3.2 1 4.2 2.1v28.5c-1-1-2.5-1.7-4.2-2L13 43.1V18.5z"/>
  <path fill="#fff8ea" d="M32.5 19c1-1.1 2.5-1.8 4.2-2.1l11.5-1.7c2.1-.3 3.8 1.2 3.8 3.3v24.6l-15.3 2.4c-1.7.3-3.2 1-4.2 2V19z"/>
  <path fill="#cbbf9c" d="M31.2 19h2.6v29h-2.6z" opacity=".9"/>
  <path fill="#22415a" d="M17 24.3l10.7 1.6v2.5L17 26.8v-2.5zm0 7.2l10.7 1.6v2.5L17 34v-2.5zm20-5.6L47.7 24v2.5L37 28.4v-2.5zm0 7.2l10.7-1.9v2.5L37 35.6v-2.5z" opacity=".75"/>
  <path fill="none" stroke="url(#rail)" stroke-linecap="round" stroke-width="5.3" d="M12.8 37.8c6.6-2.8 13.4-3.8 20.3-3.1 6.2.7 12.3-.2 18.2-2.8"/>
  <circle cx="33" cy="34.6" r="4.2" fill="#f8b84e"/>
</svg>
